<?xml version="1.0" standalone="no"?>
<!DOCTYPE svg PUBLIC "-//W3C//DTD SVG 20010904//EN"
 "http://www.w3.org/TR/2001/REC-SVG-20010904/DTD/svg10.dtd">
<svg version="1.0" xmlns="http://www.w3.org/2000/svg"
 width="800.000000pt" height="600.000000pt" viewBox="0 0 800.000000 600.000000"
 preserveAspectRatio="xMidYMid meet">

<g transform="translate(0.000000,600.000000) scale(0.100000,-0.100000)"
fill="#000000" stroke="none">
<path d="M4937 4072 c-64 -195 -164 -426 -248 -572 l-55 -95 -37 3 c-21 2 -85
-7 -144 -19 -122 -25 -216 -22 -286 9 -23 10 -80 47 -126 80 -96 72 -154 92
-263 92 -94 0 -132 -14 -177 -65 -31 -36 -33 -41 -27 -92 6 -53 6 -53 -22 -53
-49 0 -175 -40 -257 -83 -121 -62 -245 -190 -308 -317 -66 -133 -82 -199 -82
-350 0 -145 19 -220 88 -355 62 -121 190 -245 317 -308 52 -26 122 -54 155
-62 451 -116 893 198 941 668 l7 68 27 -26 c46 -44 54 -68 36 -103 -22 -42
-20 -59 9 -87 34 -35 88 -34 111 0 25 38 42 31 46 -17 3 -39 7 -45 42 -62 35
-17 42 -18 65 -5 14 8 30 29 35 47 6 22 15 32 28 32 25 0 68 23 90 47 23 25
148 370 148 408 0 17 -4 35 -10 41 -6 6 53 142 170 388 l180 379 0 294 0 293
-197 0 -198 0 -58 -178z m423 -122 l0 -269 -171 -363 c-95 -200 -175 -367
-179 -371 -4 -5 -29 7 -54 27 -60 46 -152 100 -233 136 -63 29 -64 30 -49 52
22 31 20 113 -3 164 l-19 42 35 58 c98 163 209 412 277 624 26 80 49 151 51
158 3 9 47 12 175 12 l170 0 0 -270z m-1471 -426 c28 -8 54 -21 57 -29 3 -7
-4 -61 -16 -119 -12 -59 -18 -115 -15 -126 8 -24 52 -37 76 -22 14 9 28 7 66
-11 26 -12 59 -33 71 -45 19 -19 31 -23 55 -18 38 7 150 -18 155 -34 8 -22 53
-32 77 -16 20 13 30 11 121 -28 163 -69 349 -181 436 -263 l27 -25 -40 -109
c-56 -158 -48 -149 -128 -149 -125 0 -161 18 -281 139 -100 102 -110 109 -205
150 -288 124 -390 184 -481 284 -62 69 -149 235 -182 349 l-20 67 27 10 c41
15 142 13 200 -5z m-143 -313 c87 -162 215 -261 502 -387 l177 -78 105 -107
c119 -120 149 -135 284 -146 l79 -6 -28 -25 c-27 -22 -35 -24 -109 -20 -112 6
-149 28 -281 163 -93 96 -121 118 -185 148 -377 177 -434 213 -526 332 -49 64
-111 184 -144 279 -24 72 -25 84 -3 108 16 18 18 14 53 -85 20 -57 54 -136 76
-176z m270 246 c6 -18 -31 -186 -45 -200 -26 -26 -29 11 -9 111 14 70 25 102
35 102 7 0 16 -6 19 -13z m78 -58 c32 -18 36 -26 36 -61 0 -38 -1 -40 -26 -34
-37 10 -73 35 -69 49 2 7 6 24 9 40 8 32 6 32 50 6z m521 -43 c41 -42 56 -126
30 -176 -11 -21 -20 -27 -35 -23 -15 4 -19 11 -14 22 28 67 28 69 10 110 -11
22 -27 48 -37 57 -11 10 -19 21 -19 26 0 17 42 7 65 -16z m-421 -4 c11 -18 -7
-154 -21 -159 -23 -9 -25 1 -17 86 4 57 11 81 20 81 7 0 15 -4 18 -8z m354
-36 c36 -50 41 -95 15 -118 -16 -14 -23 -14 -68 2 l-50 17 -3 58 c-4 76 1 85
41 85 28 0 39 -7 65 -44z m-218 -27 l0 -52 -42 7 c-56 9 -58 11 -58 57 l0 39
50 0 50 0 0 -51z m78 -51 c-3 -89 -5 -103 -20 -106 -16 -3 -18 7 -18 102 0
100 1 106 20 106 20 0 21 -5 18 -102z m-808 88 c0 -2 3 -11 6 -19 3 -9 -7 -22
-30 -37 l-36 -22 -46 27 c-25 15 -44 29 -42 31 13 12 148 31 148 20z m475 -48
c25 -12 45 -28 45 -35 0 -17 1 -17 -54 7 -25 12 -46 27 -46 35 0 19 1 19 55
-7z m-610 -25 c41 -25 69 -48 76 -66 17 -41 36 -57 68 -57 l28 0 -1 -107 -1
-107 -116 -68 -117 -67 -100 57 -101 57 -1 140 0 140 49 34 c41 27 137 79 149
81 2 0 32 -17 67 -37z m185 -56 c0 -9 -11 -23 -25 -29 -21 -10 -28 -8 -40 8
-22 29 -18 52 13 68 25 13 28 13 39 -7 7 -12 12 -30 13 -40z m673 6 c4 -2 7
-11 7 -20 0 -11 -6 -14 -26 -9 -15 4 -39 10 -55 13 -16 3 -29 12 -29 20 0 11
10 13 48 7 26 -3 50 -8 55 -11z m224 -58 c54 -20 144 -58 199 -85 164 -80 302
-195 271 -226 -3 -3 -43 23 -89 58 -118 90 -353 217 -465 252 -13 4 -23 14
-23 22 0 18 -6 19 107 -21z m-857 -20 c0 -8 -4 -17 -10 -20 -6 -4 -10 5 -10
20 0 15 4 24 10 20 6 -3 10 -12 10 -20z m-530 -112 l-1 -118 -99 -57 c-65 -36
-100 -51 -100 -42 0 27 50 144 85 201 31 49 102 133 112 133 2 0 3 -53 3 -117z
m600 15 c0 -4 -12 -15 -26 -25 -28 -18 -48 -12 -68 20 -9 14 -5 22 19 41 l30
24 22 -26 c12 -15 22 -30 23 -34z m199 -156 l54 -30 -54 -31 -53 -30 -46 26
c-171 100 -185 110 -188 130 -2 17 1 20 20 16 14 -3 37 5 58 20 l35 24 60 -47
c33 -26 84 -61 114 -78z m-71 -254 l3 -136 -116 -67 c-133 -78 -109 -79 -261
11 l-95 55 3 137 3 137 114 66 114 66 116 -66 116 -67 3 -136z m-603 191 l107
-62 -7 -131 c-4 -72 -9 -134 -11 -138 -7 -12 -181 -108 -194 -108 -8 0 -64 30
-127 66 l-113 66 -1 41 c0 23 -2 58 -4 77 -2 19 0 53 4 75 6 38 11 42 121 106
63 37 116 68 117 68 0 1 49 -27 108 -60z m796 1 c16 -9 17 -15 9 -31 -20 -37
-8 -81 28 -102 43 -25 77 -16 98 26 9 17 18 33 19 35 4 4 95 -43 118 -61 13
-11 17 -30 17 -88 0 -41 -4 -79 -8 -85 -4 -6 -58 -40 -121 -76 l-114 -66 -96
56 c-53 31 -97 56 -97 56 -1 1 -5 62 -9 138 l-7 136 59 35 c64 39 75 42 104
27z m112 -50 c4 -4 3 -19 -2 -33 -12 -30 -37 -35 -66 -13 -16 12 -17 17 -6 44
12 28 15 30 39 19 15 -6 31 -14 35 -17z m387 -310 c0 -3 -6 -14 -13 -24 -10
-14 -18 -15 -40 -7 -29 11 -34 30 -17 62 11 19 11 19 40 -3 17 -12 30 -25 30
-28z m-1030 -87 l85 -49 0 -118 0 -118 -118 -69 -119 -68 -51 26 c-29 14 -73
40 -99 57 l-48 31 0 140 0 140 102 57 102 57 31 -19 c16 -10 68 -40 115 -67z
m505 0 l50 -29 3 -137 3 -136 -43 -32 c-24 -17 -69 -44 -101 -59 l-59 -28
-116 67 -117 68 0 119 0 119 115 67 115 67 50 -28 c28 -16 73 -42 100 -58z
m290 55 c-18 -81 -114 -248 -174 -302 l-21 -19 0 119 0 119 98 57 c53 31 98
57 100 57 2 1 0 -14 -3 -31z m-1279 -30 l94 -53 -1 -120 0 -120 -50 55 c-65
71 -174 290 -144 290 4 0 49 -24 101 -52z m1675 14 c12 -5 14 -13 8 -29 -9
-26 -36 -30 -64 -9 -39 28 6 59 56 38z m-948 -435 c31 -17 57 -35 57 -38 0
-27 -260 -38 -355 -15 l-50 12 75 43 c41 24 88 52 105 62 29 17 30 17 70 -7
22 -13 66 -39 98 -57z"/>
<path d="M5117 4108 c-13 -29 -94 -211 -180 -404 -87 -193 -157 -356 -157
-362 0 -7 6 -12 13 -12 13 0 367 780 367 807 0 33 -22 18 -43 -29z"/>
<path d="M5067 3642 c-97 -196 -177 -365 -177 -375 0 -9 5 -17 11 -17 10 0
369 720 369 740 0 6 -6 10 -13 10 -7 0 -92 -159 -190 -358z"/>
<path d="M5292 3788 c-12 -16 -318 -641 -327 -669 -5 -13 -2 -19 10 -19 11 0
66 103 180 336 91 186 165 343 165 350 0 17 -14 18 -28 2z"/>
<path d="M2271 3750 c-9 -27 -8 -30 10 -30 16 0 19 -7 19 -44 0 -24 -4 -46 -9
-48 -5 -1 -13 -15 -16 -30 -6 -22 -4 -28 9 -28 13 0 16 -11 16 -55 0 -46 4
-60 24 -80 42 -42 82 -43 137 -3 13 9 22 7 44 -10 37 -29 51 -28 64 8 9 26 8
30 -8 30 -28 0 -31 18 -31 176 0 109 -3 144 -12 144 -34 -1 -37 -16 -40 -165
l-3 -150 -34 -3 c-19 -2 -44 -1 -57 2 -24 6 -24 9 -24 126 0 116 -9 167 -33
182 -25 16 -45 7 -56 -22z"/>
<path d="M2616 3758 c-9 -34 -8 -38 9 -38 13 0 15 -22 15 -134 0 -144 7 -166
57 -181 19 -5 25 -1 33 20 13 35 13 35 -10 35 -19 0 -20 7 -20 140 0 127 -2
142 -20 160 -27 27 -56 26 -64 -2z"/>
<path d="M2838 3756 c-16 -12 -28 -29 -28 -38 0 -9 -4 -18 -9 -20 -5 -1 -13
-15 -16 -30 -6 -22 -4 -28 9 -28 14 0 16 -15 16 -99 0 -96 1 -100 26 -120 37
-29 72 -27 84 5 14 35 14 34 -20 34 l-30 0 0 90 0 90 29 0 c23 0 31 6 40 30
10 29 9 30 -19 30 -16 0 -32 -6 -37 -12 -5 -8 -10 7 -13 39 l-5 51 -27 -22z"/>
<path d="M2981 3670 c-8 -24 -7 -30 5 -30 11 0 14 -22 14 -119 l0 -120 30 10
30 11 0 110 0 109 28 -3 c19 -2 28 -9 30 -25 2 -13 9 -23 15 -23 45 1 48 61 5
93 l-28 21 -24 -23 -24 -23 -21 21 c-29 29 -47 26 -60 -9z"/>
<path d="M3273 3658 c-57 -43 -74 -86 -30 -74 12 3 25 6 30 6 4 0 7 11 7 25 0
22 4 25 35 25 31 0 35 -3 35 -25 0 -14 -6 -25 -13 -25 -8 0 -39 -18 -70 -41
-69 -49 -76 -81 -26 -123 37 -32 37 -32 78 -2 l32 24 24 -24 c31 -31 43 -30
55 2 13 33 13 34 -5 34 -12 0 -15 17 -15 95 0 88 -2 98 -25 120 -33 34 -51 31
-112 -17z m77 -144 l0 -55 -37 3 c-32 3 -38 7 -41 28 -1 19 7 32 35 52 21 15
39 27 41 28 1 0 2 -25 2 -56z"/>
<path d="M4613 2063 c-54 -40 -63 -51 -63 -79 0 -17 -7 -48 -15 -67 -18 -45
-18 -47 -1 -47 9 0 16 -17 21 -50 11 -80 65 -130 140 -130 25 0 50 10 85 37
l50 37 0 118 c0 137 -12 177 -62 208 -51 31 -85 25 -155 -27z m131 -45 c12
-17 16 -50 16 -140 l0 -118 -48 0 c-75 0 -86 18 -90 146 -2 58 -1 111 2 119 4
10 21 15 55 15 40 0 53 -4 65 -22z"/>
<path d="M4963 2063 c-54 -40 -63 -51 -63 -79 0 -17 -7 -48 -15 -67 -18 -45
-18 -47 -1 -47 9 0 16 -17 21 -50 11 -80 65 -130 140 -130 25 0 50 10 85 37
l50 37 0 118 c0 137 -12 177 -62 208 -51 31 -85 25 -155 -27z m131 -45 c12
-17 16 -50 16 -140 l0 -118 -48 0 c-75 0 -86 18 -90 146 -2 58 -1 111 2 119 4
10 21 15 55 15 40 0 53 -4 65 -22z"/>
<path d="M4298 2057 c-48 -35 -57 -47 -58 -73 0 -18 -7 -45 -15 -60 -19 -37
-19 -54 0 -54 20 0 20 -87 0 -126 -22 -42 -19 -54 13 -54 49 0 72 36 72 113
l0 67 74 0 74 0 11 31 c6 18 11 34 11 35 0 10 -148 2 -158 -8 -9 -9 -12 1 -12
45 l0 57 79 0 79 0 11 31 c6 18 11 34 11 35 0 2 -30 4 -67 4 -64 -1 -71 -3
-125 -43z"/>
<path d="M5231 2069 c-6 -18 -11 -34 -11 -35 0 -2 28 -4 62 -4 48 0 59 -3 50
-12 -7 -7 -12 -24 -12 -39 0 -15 -7 -40 -15 -55 -19 -37 -19 -54 0 -54 12 0
15 -17 15 -90 0 -94 1 -96 48 -84 22 6 22 9 22 170 l0 163 47 3 c42 3 48 6 60
36 l13 32 -134 0 -134 0 -11 -31z"/>
</g>
</svg>
